<svg xmlns="http://www.w3.org/2000/svg" viewBox="0 0 96 96" role="img" aria-hidden="true">
  <defs>
    <clipPath id="clip-avatar-06">
      <circle cx="48" cy="48" r="48"/>
    </clipPath>
  </defs>
  <circle cx="48" cy="48" r="48" fill="#dff5e1"/>
  <g clip-path="url(#clip-avatar-06)">
    <path d="M48 62 C24 62 14 80 14 96 L82 96 C82 80 72 62 48 62 Z" fill="#f0c49b"/>
    <path d="M48 22 a18 18 0 0 1 18 18 v4 a18 18 0 0 1 -36 0 v-4 a18 18 0 0 1 18 -18 Z" fill="#f0c49b"/>
    <path d="M27 32 Q48 8 70 30 Q64 26 56 28 Q48 18 38 26 Q32 26 27 34 Z" fill="#8a5a2b"/>
  </g>
</svg>
