<svg xmlns="http://www.w3.org/2000/svg" viewBox="0 0 320 200">
  <rect width="320" height="200" fill="#6b3fa0"/>
  <circle cx="110" cy="100" r="26" fill="#f2eafb"/>
  <circle cx="110" cy="100" r="11" fill="#6b3fa0"/>
  <g fill="#f2eafb">
    <rect x="102" y="60" width="16" height="16" rx="3"/>
    <rect x="102" y="124" width="16" height="16" rx="3"/>
    <rect x="66" y="92" width="16" height="16" rx="3"/>
    <rect x="138" y="92" width="16" height="16" rx="3"/>
    <rect x="80" y="71" width="16" height="16" rx="3" transform="rotate(45 88 79)"/>
    <rect x="124" y="71" width="16" height="16" rx="3" transform="rotate(-45 132 79)"/>
    <rect x="80" y="113" width="16" height="16" rx="3" transform="rotate(-45 88 121)"/>
    <rect x="124" y="113" width="16" height="16" rx="3" transform="rotate(45 132 121)"/>
  </g>
  <path d="M195 80 l-20 20 20 20" fill="none" stroke="#f2eafb" stroke-width="9" stroke-linecap="round" stroke-linejoin="round"/>
  <path d="M255 80 l20 20 -20 20" fill="none" stroke="#f2eafb" stroke-width="9" stroke-linecap="round" stroke-linejoin="round"/>
</svg>
